<svg xmlns="http://www.w3.org/2000/svg" style="display:none">
  <!-- Font Awesome Free 5.15.4 icons licensed under CC BY 4.0 (https://fontawesome.com/license/free) -->

  <symbol id="user" viewBox="0 0 448 512"><path d="M224 256c70.7 0 128-57.3 128-128S294.7 0 224 0 96 57.3 96 128s57.3 128 128 128zm89.6 32h-16.7c-22.2 10.2-46.9 16-72.9 16s-50.6-5.8-72.9-16h-16.7C60.2 288 0 348.2 0 422.4V464c0 26.5 21.5 48 48 48h352c26.5 0 48-21.5 48-48v-41.6c0-74.2-60.2-134.4-134.4-134.4z" fill="currentColor"/></symbol>

  <symbol id="laptop-code" viewBox="0 0 640 512"><path d="M255.03 261.65c6.25 6.25 16.38 6.25 22.63 0l11.31-11.31c6.25-6.25 6.25-16.38 0-22.63L253.25 192l35.71-35.72c6.25-6.25 6.25-16.38 0-22.63l-11.31-11.31c-6.25-6.25-16.38-6.25-22.63 0l-58.34 58.34c-6.25 6.25-6.25 16.38 0 22.63l58.34 58.34zm96.01-11.3l11.31 11.31c6.25 6.25 16.38 6.25 22.63 0l58.34-58.34c6.25-6.25 6.25-16.38 0-22.63l-58.34-58.34c-6.25-6.25-16.38-6.25-22.63 0l-11.31 11.31c-6.25 6.25-6.25 16.38 0 22.63L386.75 192l-35.71 35.72c-6.25 6.25-6.25 16.38 0 22.63zM624 416H381.54c-.74 19.81-14.71 32-32.74 32H288c-18.69 0-33.02-17.47-32.77-32H16c-8.8 0-16 7.2-16 16v16c0 35.2 28.8 64 64 64h512c35.2 0 64-28.8 64-64v-16c0-8.8-7.2-16-16-16zM576 48c0-26.4-21.6-48-48-48H112C85.6 0 64 21.6 64 48v336h512V48zm-64 272H128V64h384v256z" fill="currentColor"/></symbol>

  <symbol id="download" viewBox="0 0 512 512"><path d="M216 0h80c13.3 0 24 10.7 24 24v168h87.7c17.8 0 26.7 21.5 14.1 34.1L269.7 378.3c-7.5 7.5-19.8 7.5-27.3 0L90.1 226.1c-12.6-12.6-3.7-34.1 14.1-34.1H192V24c0-13.3 10.7-24 24-24zm296 376v112c0 13.3-10.7 24-24 24H24c-13.3 0-24-10.7-24-24V376c0-13.3 10.7-24 24-24h146.7l49 49c20.1 20.1 52.5 20.1 72.6 0l49-49H488c13.3 0 24 10.7 24 24zm-124 88c0-11-9-20-20-20s-20 9-20 20 9 20 20 20 20-9 20-20zm64 0c0-11-9-20-20-20s-20 9-20 20 9 20 20 20 20-9 20-20z" fill="currentColor"/></symbol>

  <symbol id="eye" viewBox="0 0 576 512"><path d="M572.52 241.4C518.29 135.59 410.93 64 288 64S57.68 135.64 3.48 241.41a32.35 32.35 0 0 0 0 29.19C57.71 376.41 165.07 448 288 448s230.32-71.64 284.52-177.41a32.35 32.35 0 0 0 0-29.19zM288 400a144 144 0 1 1 144-144 143.93 143.93 0 0 1-144 144zm0-240a95.31 95.31 0 0 0-25.31 3.79 47.85 47.85 0 0 1-66.9 66.9A95.78 95.78 0 1 0 288 160z" fill="currentColor"/></symbol>

  <symbol id="code" viewBox="0 0 640 512"><path d="M278.9 511.5l-61-17.7c-6.4-1.8-10-8.5-8.2-14.9L346.2 8.7c1.8-6.4 8.5-10 14.9-8.2l61 17.7c6.4 1.8 10 8.5 8.2 14.9L293.8 503.3c-1.9 6.4-8.5 10.1-14.9 8.2zm-114-112.2l43.5-46.4c4.6-4.9 4.3-12.7-.8-17.2L117 256l90.6-79.7c5.1-4.5 5.5-12.3.8-17.2l-43.5-46.4c-4.5-4.8-12.1-5.1-17-.5L3.8 247.2c-5.1 4.7-5.1 12.8 0 17.5l144.1 135.1c4.9 4.6 12.5 4.4 17-.5zm327.2.6l144.1-135.1c5.1-4.7 5.1-12.8 0-17.5L492.1 112.1c-4.8-4.5-12.4-4.3-17 .5L431.6 159c-4.6 4.9-4.3 12.7.8 17.2L523 256l-90.6 79.7c-5.1 4.5-5.5 12.3-.8 17.2l43.5 46.4c4.5 4.9 12.1 5.1 17 .6z" fill="currentColor"/></symbol>

  <symbol id="envelope" viewBox="0 0 512 512"><path d="M502.3 190.8c3.9-3.1 9.7-.2 9.7 4.7V400c0 26.5-21.5 48-48 48H48c-26.5 0-48-21.5-48-48V195.6c0-5 5.7-7.8 9.7-4.7 22.4 17.4 52.1 39.5 154.1 113.6 21.1 15.4 56.7 47.8 92.2 47.6 35.7.3 72-32.8 92.3-47.6 102-74.1 131.6-96.3 154-113.7zM256 320c23.2.4 56.6-29.2 73.4-41.4 132.7-96.3 142.8-104.7 173.4-128.7 5.8-4.5 9.2-11.5 9.2-18.9v-19c0-26.5-21.5-48-48-48H48C21.5 64 0 85.5 0 112v19c0 7.4 3.4 14.3 9.2 18.9 30.6 23.9 40.7 32.4 173.4 128.7 16.8 12.2 50.2 41.8 73.4 41.4z" fill="currentColor"/></symbol>

  <symbol id="arrow-right" viewBox="0 0 448 512"><path d="M190.5 66.9l22.2-22.2c9.4-9.4 24.6-9.4 33.9 0L441 239c9.4 9.4 9.4 24.6 0 33.9L246.6 467.3c-9.4 9.4-24.6 9.4-33.9 0l-22.2-22.2c-9.5-9.5-9.3-25 .4-34.3L311.4 296H24c-13.3 0-24-10.7-24-24v-32c0-13.3 10.7-24 24-24h287.4L190.9 101.2c-9.8-9.3-10-24.8-.4-34.3z" fill="currentColor"/></symbol>

  <symbol id="phone" viewBox="0 0 512 512"><path d="M493.4 24.6l-104-24c-11.3-2.6-22.9 3.3-27.5 13.9l-48 112c-4.2 9.8-1.4 21.3 6.9 28l60.6 49.6c-36 76.7-98.9 140.5-177.2 177.2l-49.6-60.6c-6.8-8.3-18.2-11.1-28-6.9l-112 48C3.9 366.5-2 378.1.6 389.4l24 104C27.1 504.2 36.7 512 48 512c256.1 0 464-207.5 464-464 0-11.2-7.7-20.9-18.6-23.4z" fill="currentColor"/></symbol>

  <symbol id="map-marker" viewBox="0 0 384 512"><path d="M172.268 501.67C26.97 291.031 0 269.413 0 192 0 85.961 85.961 0 192 0s192 85.961 192 192c0 77.413-26.97 99.031-172.268 309.67-9.535 13.774-29.93 13.773-39.464 0zM192 272c44.183 0 80-35.817 80-80s-35.817-80-80-80-80 35.817-80 80 35.817 80 80 80z" fill="currentColor"/></symbol>

  <symbol id="heart" viewBox="0 0 512 512"><path d="M462.3 62.6C407.5 15.9 326 24.3 275.7 76.2L256 96.5l-19.7-20.3C186.1 24.3 104.5 15.9 49.7 62.6c-62.8 53.6-66.1 149.8-9.9 207.9l193.5 199.8c12.5 12.9 32.8 12.9 45.3 0l193.5-199.8c56.3-58.1 53-154.3-9.8-207.9z" fill="currentColor"/></symbol>

  <symbol id="arrow-up" viewBox="0 0 448 512"><path d="M34.9 289.5l-22.2-22.2c-9.4-9.4-9.4-24.6 0-33.9L207 39c9.4-9.4 24.6-9.4 33.9 0l194.3 194.3c9.4 9.4 9.4 24.6 0 33.9L413 289.4c-9.5 9.5-25 9.3-34.3-.4L264 168.6V456c0 13.3-10.7 24-24 24h-32c-13.3 0-24-10.7-24-24V168.6L69.2 289.1c-9.3 9.8-24.8 10-34.3.4z" fill="currentColor"/></symbol>

  <symbol id="arrow-left" viewBox="0 0 448 512"><path d="M257.5 445.1l-22.2 22.2c-9.4 9.4-24.6 9.4-33.9 0L7 273c-9.4-9.4-9.4-24.6 0-33.9L201.4 44.7c9.4-9.4 24.6-9.4 33.9 0l22.2 22.2c9.5 9.5 9.3 25-.4 34.3L136.6 216H424c13.3 0 24 10.7 24 24v32c0 13.3-10.7 24-24 24H136.6l120.5 114.8c9.8 9.3 10 24.8.4 34.3z" fill="currentColor"/></symbol>

  <symbol id="check-circle" viewBox="0 0 512 512"><path d="M504 256c0 136.967-111.033 248-248 248S8 392.967 8 256 119.033 8 256 8s248 111.033 248 248zM227.314 387.314l184-184c6.248-6.248 6.248-16.379 0-22.627l-22.627-22.627c-6.248-6.249-16.379-6.249-22.628 0L216 308.118l-70.059-70.059c-6.248-6.248-16.379-6.248-22.628 0l-22.627 22.627c-6.248 6.248-6.248 16.379 0 22.627l104 104c6.249 6.249 16.379 6.249 22.628.001z" fill="currentColor"/></symbol>

  <!-- Brands -->
  <symbol id="github" viewBox="0 0 496 512"><path d="M165.9 397.4c0 2-2.3 3.6-5.2 3.6-3.3.3-5.6-1.3-5.6-3.6 0-2 2.3-3.6 5.2-3.6 3-.3 5.6 1.3 5.6 3.6zm-31.1-4.5c-.7 2 1.3 4.3 4.3 4.9 2.6 1 5.6 0 6.2-2s-1.3-4.3-4.3-5.2c-2.6-.7-5.5.3-6.2 2.3zm44.2-1.7c-2.9.7-4.9 2.6-4.6 4.9.3 2 2.9 3.3 5.9 2.6 2.9-.7 4.9-2.6 4.6-4.6-.3-1.9-3-3.2-5.9-2.9zM244.8 8C106.1 8 0 113.3 0 252c0 110.9 69.8 205.8 169.5 239.2 12.8 2.3 17.3-5.6 17.3-12.1 0-6.2-.3-40.4-.3-61.4 0 0-70 15-84.7-29.8 0 0-11.4-29.1-27.8-36.6 0 0-22.9-15.7 1.6-15.4 0 0 24.9 2 38.6 25.8 21.9 38.6 58.6 27.5 72.9 20.9 2.3-16 8.8-27.1 16-33.7-55.9-6.2-112.3-14.3-112.3-110.5 0-27.5 7.6-41.3 23.6-58.9-2.6-6.5-11.1-33.3 2.6-67.9 20.9-6.5 69 27 69 27 20-5.6 41.5-8.5 62.8-8.5s42.8 2.9 62.8 8.5c0 0 48.1-33.6 69-27 13.7 34.7 5.2 61.4 2.6 67.9 16 17.7 25.8 31.5 25.8 58.9 0 96.5-58.9 104.2-114.8 110.5 9.2 7.9 17 22.9 17 46.4 0 33.7-.3 75.4-.3 83.6 0 6.5 4.6 14.4 17.3 12.1C428.2 457.8 496 362.9 496 252 496 113.3 383.5 8 244.8 8zM97.2 352.9c-1.3 1-1 3.3.7 5.2 1.6 1.6 3.9 2.3 5.2 1 1.3-1 1-3.3-.7-5.2-1.6-1.6-3.9-2.3-5.2-1zm-10.8-8.1c-.7 1.3.3 2.9 2.3 3.9 1.6 1 3.6.7 4.3-.7.7-1.3-.3-2.9-2.3-3.9-2-.6-3.6-.3-4.3.7zm32.4 35.6c-1.6 1.3-1 4.3 1.3 6.2 2.3 2.3 5.2 2.6 6.5 1 1.3-1.3.7-4.3-1.3-6.2-2.2-2.3-5.2-2.6-6.5-1zm-11.4-14.7c-1.6 1-1.6 3.6 0 5.9 1.6 2.3 4.3 3.3 5.6 2.3 1.6-1.3 1.6-3.9 0-6.2-1.4-2.3-4-3.3-5.6-2z" fill="currentColor"/></symbol>

  <symbol id="instagram" viewBox="0 0 448 512"><path d="M224.1 141c-63.6 0-114.9 51.3-114.9 114.9s51.3 114.9 114.9 114.9S339 319.5 339 255.9 287.7 141 224.1 141zm0 189.6c-41.1 0-74.7-33.5-74.7-74.7s33.5-74.7 74.7-74.7 74.7 33.5 74.7 74.7-33.6 74.7-74.7 74.7zm146.4-194.3c0 14.9-12 26.8-26.8 26.8-14.9 0-26.8-12-26.8-26.8s12-26.8 26.8-26.8 26.8 12 26.8 26.8zm76.1 27.2c-1.7-35.9-9.9-67.7-36.2-93.9-26.2-26.2-58-34.4-93.9-36.2-37-2.1-147.9-2.1-184.9 0-35.8 1.7-67.6 9.9-93.9 36.1s-34.4 58-36.2 93.9c-2.1 37-2.1 147.9 0 184.9 1.7 35.9 9.9 67.7 36.2 93.9s58 34.4 93.9 36.2c37 2.1 147.9 2.1 184.9 0 35.9-1.7 67.7-9.9 93.9-36.2 26.2-26.2 34.4-58 36.2-93.9 2.1-37 2.1-147.8 0-184.8zM398.8 388c-7.8 19.6-22.9 34.7-42.6 42.6-29.5 11.7-99.5 9-132.1 9s-102.7 2.6-132.1-9c-19.6-7.8-34.7-22.9-42.6-42.6-11.7-29.5-9-99.5-9-132.1s-2.6-102.7 9-132.1c7.8-19.6 22.9-34.7 42.6-42.6 29.5-11.7 99.5-9 132.1-9s102.7-2.6 132.1 9c19.6 7.8 34.7 22.9 42.6 42.6 11.7 29.5 9 99.5 9 132.1s2.7 102.7-9 132.1z" fill="currentColor"/></symbol>

  <symbol id="linkedin" viewBox="0 0 448 512"><path d="M416 32H31.9C14.3 32 0 46.5 0 64.3v383.4C0 465.5 14.3 480 31.9 480H416c17.6 0 32-14.5 32-32.3V64.3c0-17.8-14.4-32.3-32-32.3zM135.4 416H69V202.2h66.5V416zm-33.2-243c-21.3 0-38.5-17.3-38.5-38.5S80.9 96 102.2 96c21.2 0 38.5 17.3 38.5 38.5 0 21.3-17.2 38.5-38.5 38.5zm282.1 243h-66.4V312c0-24.8-.5-56.7-34.5-56.7-34.6 0-39.9 27-39.9 54.9V416h-66.4V202.2h63.7v29.2h.9c8.9-16.8 30.6-34.5 62.9-34.5 67.2 0 79.7 44.3 79.7 101.9V416z" fill="currentColor"/></symbol>

  <symbol id="react" viewBox="0 0 512 512"><path d="M418.2 177.2c-5.4-1.8-10.8-3.5-16.2-5.1.9-3.7 1.7-7.4 2.5-11.1 12.3-59.6 4.2-107.5-23.1-123.3-26.3-15.1-69.2.6-112.6 38.4-4.3 3.7-8.5 7.6-12.5 11.5-2.7-2.6-5.5-5.2-8.3-7.7-45.5-40.4-91.1-57.4-118.4-41.5-26.2 15.2-34 60.3-23 116.7 1.1 5.6 2.3 11.1 3.7 16.7-6.4 1.8-12.7 3.8-18.6 5.9C38.3 196.2 0 225.4 0 255.6c0 31.2 40.8 62.5 96.3 81.5 4.5 1.5 9 3 13.6 4.3-1.5 6-2.8 11.9-4 18-10.5 55.5-2.3 99.5 23.9 114.6 27 15.6 72.4-.4 116.6-39.1 3.5-3.1 7-6.3 10.5-9.7 4.4 4.3 9 8.4 13.6 12.4 42.8 36.8 85.1 51.7 111.2 36.6 27-15.6 35.8-62.9 24.4-120.5-.9-4.4-1.9-8.9-3-13.5 3.2-.9 6.3-1.9 9.4-2.9 57.7-19.1 99.5-50 99.5-81.7 0-30.3-39.4-59.7-93.8-78.4zM282.9 92.3c37.2-32.4 71.9-45.1 87.7-36 16.9 9.7 23.4 48.9 12.8 100.4-.7 3.4-1.4 6.7-2.3 10-22.2-5-44.7-8.6-67.3-10.6-13-18.6-27.2-35.1-42.6-49.7 3.9-4.7 7.7-9.4 11.7-14.1zm-52.6 0c-4 4.7-7.9 9.4-11.7 14.1-15.4 14.6-29.6 31.1-42.6 49.7-22.6 1.9-45.1 5.5-67.2 10.4-.8-3.3-1.6-6.6-2.3-10-10.6-51.6-4.1-90.7 12.8-100.4 15.8-9.1 50.5 3.6 87.7 36 4 3.4 7.9 6.9 11.7 10.4.1 0-.1 0 0 0zm12.1 27.1c14.7 13.9 28.3 29.7 40.5 47.3-6.1 1.4-12.4 2.6-18.7 3.7-7.8 1.1-15.8 2-24 2.7-8.2-.7-16.2-1.6-24-2.7-6.3-.9-12.6-2.2-18.7-3.7 12.2-17.5 25.8-33.3 40.5-47.3 1.5-1.4 2.9-2.8 4.4-4.1 1.5 1.4 2.9 2.7 4.4 4.1zm-53.9 150.3c-10.3-19.8-17.6-40.4-21.9-61.3 7.2-.6 14.4-1.1 21.9-1.5 7.5-.4 15.1-.6 22.9-.6 7.7 0 15.3.2 22.8.6 7.5.4 14.7.9 21.9 1.5-4.3 20.9-11.6 41.5-21.9 61.3-4.3 8.2-9.1 16-14.5 23.3-1.5-.8-3-1.7-4.4-2.5-4.1-2.3-8.2-4.2-12.5-5.8-4.3 1.6-8.3 3.5-12.4 5.8-1.5.8-2.9 1.7-4.4 2.5-5.4-7.2-10.2-15-14.5-23.3zm38.2 0c3.7 7.1 7.6 13.8 11.8 20.1 3.8 5.9 7.7 11.4 11.8 16.4-5.5 1.3-11.2 1.9-17.1 1.9s-11.6-.6-17.1-1.9c4.1-5 8-10.4 11.8-16.4 4.2-6.3 8.1-13 11.8-20.1zm-90.9 57.7c-16.8-9.7-23.3-49-12.7-100.7.7-3.4 1.4-6.8 2.3-10.2 22.2 5 44.7 8.6 67.3 10.6 13 18.6 27.2 35.1 42.6 49.7-3.9 4.7-7.7 9.4-11.7 14.1-37.2 32.4-71.9 45.1-87.8 36.5zm183.8 0c-15.9 8.6-50.5-4.1-87.7-36.5-4-3.7-7.9-8.4-11.7-14.1 15.4-14.6 29.6-31 42.6-49.6 22.6-2 45.2-5.6 67.3-10.6.9 3.4 1.7 6.8 2.3 10.2 10.6 51.7 4 91-12.8 100.6zM85.3 315.1c-50.3-17.2-75.3-41.9-75-59.7.3-17.4 24.5-40.6 73.2-56.7 4.9-1.6 9.9-3.1 15.2-4.4 1.3 6.7 2.9 13.3 4.5 19.8.6 2.4 1.3 4.8 1.9 7.2-10.3 4.1-20 8.7-29 13.8-10.8 6.1-16.4 12.4-16.1 18.2.3 6 6.7 13.5 18.8 20.4 6.1 3.5 12.8 6.6 19.9 9.5 1.1-3.4 2.2-6.7 3.4-10 4.1 1.1 8.2 2.3 12.3 3.3-5 16.8-8.6 34.1-10.9 51.8-5.2 1.5-10.3 2.9-15.2 4.3zM256 349.1c-4.2-.4-8.3-.9-12.3-1.5-3.9-.6-7.7-1.3-11.4-2.1 4.6-17.6 8.2-35.9 10.7-54.5 4.2.2 8.4.3 12.7.3 4.3 0 8.5-.2 12.8-.4 2.5 18.6 6.1 37 10.7 54.5-3.8.8-7.7 1.5-11.7 2.1-4 .4-8.1.7-12.2 1zm.3-92.1c-3.8 0-7.5-.2-11.2-.6-3.4-.4-6.8-.8-10.2-1.3 3.9-14.7 9.3-28.9 16.1-42.3 1.7.9 3.4 1.8 5.1 2.8 4.4 2.5 8.8 5.3 12.9 8.5-.9 10.1-1.8 20.4-2.7 32.9zm33.1 0c-.9-12.4-1.7-22.6-2.6-32.7 4.2-3.2 8.5-6.1 12.9-8.6l5.1-2.8c6.8 13.4 12.2 27.6 16.1 42.4-3.4.5-6.8.9-10.3 1.3-3.6.6-7.3.9-11 .9zm62.9 40.8c-3.6-.9-7.2-1.8-10.8-2.5-2.2-17.4-5.7-34.4-10.5-50.9 4.4-.8 8.8-1.7 13.1-2.8.9 3.3 1.8 6.7 2.7 10 3.6 13.3 6.5 27.1 8.5 41.2-1 .7-2 1.3-3 2zm-11.8 16.8c-6.6 3.2-13.6 6-20.8 8.2-1 3.5-2.1 7-3.2 10.5 4.4-1.5 8.7-3.1 12.8-5 4.1-1.8 8.1-3.7 11.8-5.9 1.1-2.4 2.3-4.8 3.4-7.2-1.3-.2-2.6-.4-4-.6zM256 160.6c-52.9 0-95.9 42.8-96 95.3.1 52.6 43.1 95.5 96 95.5s95.9-42.8 96-95.3c-.1-52.6-43.1-95.5-96-95.5z" fill="currentColor"/></symbol>

  <symbol id="js-square" viewBox="0 0 448 512"><path d="M400 32H48C21.5 32 0 53.5 0 80v352c0 26.5 21.5 48 48 48h352c26.5 0 48-21.5 48-48V80c0-26.5-21.5-48-48-48zM243.8 381.4c0 43.6-25.6 63.5-62.9 63.5-33.7 0-53.2-17.4-63.2-38.5l34.3-20.7c6.6 11.7 12.6 21.6 27.1 21.6 13.8 0 22.6-5.4 22.6-26.5V237.7h42.1v143.7zm99.6 63.5c-39.1 0-64.4-18.6-76.7-43l34.3-19.8c9 14.7 20.8 25.6 41.5 25.6 17.4 0 28.6-8.7 28.6-20.8 0-14.4-11.4-19.5-30.7-28l-10.5-4.5c-30.4-12.9-50.5-29.2-50.5-63.5 0-31.6 24.1-55.6 61.6-55.6 26.8 0 46 9.3 59.8 33.7L368 290c-7.2-12.9-15-18-27.1-18-12.3 0-20.1 7.8-20.1 18 0 12.6 7.8 17.7 25.9 25.6l10.5 4.5c35.8 15.3 55.9 31 55.9 66.2 0 37.8-29.8 58.6-69.7 58.6z" fill="currentColor"/></symbol>

  <symbol id="css3-alt" viewBox="0 0 384 512"><path d="M0 32l34.9 395.8L192 480l157.1-52.2L384 32H0zm313.1 80l-4.8 47.3L193 208.6l-.3.1h111.5l-12.8 146.6-98.2 30.7-98.8-29.6-6.4-73.9h48.9l3.2 38.3 52.6 13.3 54.7-15.4 3.7-61.6-166.3-.5v-.1l-.2.1-3.6-46.3L193.1 162l6.5-2.7H76.7L70.9 112h242.2z" fill="currentColor"/></symbol>

  <symbol id="html5" viewBox="0 0 384 512"><path d="M0 32l34.9 395.8L191.5 480l157.6-52.2L384 32H0zm308.2 127.9H124.4l4.1 49.4h175.6l-13.6 148.4-97.9 27v.3h-1.1l-98.7-27.3-6-75.8h47.7L138 320l53.5 14.5 53.7-14.5 6-62.2H84.3L71.5 112.2h241.1l-4.4 47.7z" fill="currentColor"/></symbol>

  <symbol id="node-js" viewBox="0 0 448 512"><path d="M224 508c-6.7 0-13.5-1.8-19.4-5.2l-61.7-36.5c-9.2-5.2-4.7-7-1.7-8 12.3-4.3 14.8-5.2 27.9-12.7 1.4-.8 3.2-.5 4.6.4l47.4 28.1c1.7 1 4.1 1 5.7 0l184.7-106.6c1.7-1 2.8-2.9 2.8-4.9V139.3c0-2.1-1.1-3.9-2.8-4.9L226.8 27.8c-1.7-1-3.9-1-5.7 0L36.4 134.4c-1.7 1-2.8 2.9-2.8 4.9v213.3c0 2.1 1.1 3.9 2.8 4.9l50.6 29.2c27.5 13.7 44.3-2.4 44.3-18.5V167.5c0-3 2.4-5.3 5.3-5.3h23.4c2.9 0 5.3 2.3 5.3 5.3V378c0 36.6-20 57.6-54.7 57.6-10.7 0-19.1 0-42.7-11.6l-48.6-28.1C18.4 387.2.6 378.4.6 360.3V151.7c0-18.1 9.8-34.9 25.7-44L211 1.1c15.4-8.9 34.9-8.9 50.3 0L447 106.9c15.9 9.1 25.7 25.9 25.7 44.9v208.5c0 18.9-9.8 35.7-25.7 44.9L261.4 502.8c-5.9 3.4-12.7 5.2-19.4 5.2zm66.2-114.5c-72.4 0-87.5-33.2-87.5-61.1 0-3.1 2.5-5.5 5.6-5.5h23.9c2.8 0 5.1 2 5.5 4.7 3.8 25.7 15.2 38.7 52.6 38.7 32.3 0 46.1-7.3 46.1-24.5 0-9.9-3.9-17.3-54.2-22.2-42.1-4.1-68.2-13.5-68.2-47.1 0-31 26.2-49.6 70-49.6 49.3 0 73.6 17.1 76.7 53.8.3 3-2 5.4-5 5.4H359c-2.6 0-4.8-1.9-5.3-4.4-5.8-25.9-20-34.2-54.1-34.2-39.8 0-43.7 13.9-43.7 24.2 0 12.6 5.5 16.3 52.5 23.3 47.2 7.1 69.9 17.2 69.9 46.5 0 33.6-28 53-76.8 53z" fill="currentColor"/></symbol>
</svg>
